<svg>
  <symbol id="svg-icon-user" width="17" height="17" viewBox="0 0 17 17" version="1.1" xmlns="http://www.w3.org/2000/svg" xmlns:xlink="http://www.w3.org/1999/xlink">
    <g id="Canvas" transform="translate(-1352 -423)">
    <g id="Group 12">
    <g id="Group 11">
    <g id="Path 4">
    <use xlink:href="#path0_fill" transform="translate(1356.41 423)"/>
    </g>
    <g id="Path 5">
    <use xlink:href="#path1_fill" transform="translate(1353 430.5)"/>
    </g>
    </g>
    </g>
    </g>
    <defs>
    <path id="path0_fill" d="M 4.09346 8.18237C 4.63192 8.19055 5.16634 8.08829 5.66374 7.8819C 6.16114 7.67551 6.61097 7.36936 6.98545 6.98237C 7.37245 6.60788 7.67859 6.15806 7.88498 5.66065C 8.09137 5.16325 8.19363 4.62883 8.18545 4.09037C 8.19357 3.55191 8.09129 3.01751 7.88491 2.52011C 7.67852 2.02272 7.3724 1.57289 6.98545 1.19837C 6.60565 0.818445 6.15471 0.517068 5.65841 0.31145C 5.16211 0.105832 4.63016 -5.17102e-12 4.09295 -5.17178e-12C 3.55574 -5.17204e-12 3.0238 0.105832 2.5275 0.31145C 2.0312 0.517068 1.58027 0.818445 1.20046 1.19837C 0.813508 1.57289 0.507394 2.02272 0.301006 2.52011C 0.0946188 3.01751 -0.00766944 3.55191 0.000453905 4.09037C -0.0077287 4.62883 0.0945313 5.16325 0.300922 5.66065C 0.507313 6.15806 0.81346 6.60788 1.20046 6.98237C 1.5751 7.36944 2.02509 7.67562 2.52266 7.88202C 3.02024 8.08841 3.55484 8.19063 4.09346 8.18237L 4.09346 8.18237Z"/>
    <path id="path1_fill" d="M 14.9656 5.00225C 14.9367 4.61286 14.887 4.22529 14.8166 3.84124C 14.7481 3.45012 14.6539 3.06396 14.5346 2.68524C 14.4183 2.32399 14.2648 1.97579 14.0766 1.64624C 13.8994 1.32794 13.6767 1.0372 13.4156 0.783237C 13.1519 0.535815 12.8424 0.342208 12.5046 0.213244C 12.1257 0.0675315 11.7225 -0.00475146 11.3166 0.000246986C 11.1541 0.0467985 11.0023 0.124572 10.8696 0.229236C 10.6356 0.381902 10.3709 0.552578 10.0756 0.741244C 9.71478 0.959029 9.32809 1.1307 8.92457 1.25225C 8.00116 1.55762 7.00398 1.55762 6.08057 1.25225C 5.67704 1.13072 5.29036 0.959048 4.92957 0.741244C 4.63491 0.553244 4.37024 0.382569 4.13557 0.229236C 4.00288 0.124572 3.85104 0.0467985 3.68857 0.000246986C 3.28265 -0.00475146 2.87948 0.0675315 2.50057 0.213244C 2.16274 0.342208 1.85329 0.535815 1.58957 0.783237C 1.3288 1.0373 1.10647 1.32803 0.929574 1.64624C 0.741412 1.97582 0.587925 2.32401 0.471573 2.68524C 0.352271 3.06396 0.258067 3.45012 0.189574 3.84124C 0.119039 4.22527 0.0693002 4.61285 0.0405737 5.00225C 0.015907 5.36091 0.00357301 5.72757 0.00357301 6.10224C -0.0157616 6.47453 0.0435237 6.84674 0.177569 7.1946C 0.311614 7.54246 0.517414 7.8582 0.781573 8.12125C 1.3455 8.63173 2.0888 8.89783 2.84857 8.86124L 12.1596 8.86124C 12.9194 8.89783 13.6627 8.63173 14.2266 8.12125C 14.4908 7.85823 14.6966 7.5425 14.8307 7.19463C 14.9647 6.84676 15.024 6.47454 15.0046 6.10224C 15.0039 5.72757 14.9909 5.36091 14.9656 5.00225Z"/>
    </defs>
  </symbol>
  <symbol id="svg-icon-mail" version="1.1" xmlns="http://www.w3.org/2000/svg" xmlns:xlink="http://www.w3.org/1999/xlink" x="0px" y="0px"
  	 viewBox="0 0 483.3 483.3" style="enable-background:new 0 0 483.3 483.3;" xml:space="preserve">
    <g>
    	<g>
    		<path d="M424.3,57.75H59.1c-32.6,0-59.1,26.5-59.1,59.1v249.6c0,32.6,26.5,59.1,59.1,59.1h365.1c32.6,0,59.1-26.5,59.1-59.1
    			v-249.5C483.4,84.35,456.9,57.75,424.3,57.75z M456.4,366.45c0,17.7-14.4,32.1-32.1,32.1H59.1c-17.7,0-32.1-14.4-32.1-32.1v-249.5
    			c0-17.7,14.4-32.1,32.1-32.1h365.1c17.7,0,32.1,14.4,32.1,32.1v249.5H456.4z"/>
    		<path d="M304.8,238.55l118.2-106c5.5-5,6-13.5,1-19.1c-5-5.5-13.5-6-19.1-1l-163,146.3l-31.8-28.4c-0.1-0.1-0.2-0.2-0.2-0.3
    			c-0.7-0.7-1.4-1.3-2.2-1.9L78.3,112.35c-5.6-5-14.1-4.5-19.1,1.1c-5,5.6-4.5,14.1,1.1,19.1l119.6,106.9L60.8,350.95
    			c-5.4,5.1-5.7,13.6-0.6,19.1c2.7,2.8,6.3,4.3,9.9,4.3c3.3,0,6.6-1.2,9.2-3.6l120.9-113.1l32.8,29.3c2.6,2.3,5.8,3.4,9,3.4
    			c3.2,0,6.5-1.2,9-3.5l33.7-30.2l120.2,114.2c2.6,2.5,6,3.7,9.3,3.7c3.6,0,7.1-1.4,9.8-4.2c5.1-5.4,4.9-14-0.5-19.1L304.8,238.55z"
    			/>
    	</g>
    </g>
  </symbol>
  <symbol id="svg-icon-key" version="1.1" xmlns="http://www.w3.org/2000/svg" xmlns:xlink="http://www.w3.org/1999/xlink" x="0px" y="0px"
  	 width="300px" height="300px" viewBox="0 0 300 300" enable-background="new 0 0 300 300" xml:space="preserve">
  <path d="M287.305,243.005c-0.136-1.772-0.928-3.476-2.227-4.747L172.835,126.015c4.416-10.403,6.747-21.669,6.747-33.312
  	c0-22.754-8.875-44.163-24.938-60.266C138.558,16.366,117.164,7.5,94.397,7.5c-22.778,0-44.135,8.869-60.247,24.95
  	C0.907,65.675,0.9,119.716,34.145,152.938c16.111,16.115,37.475,24.99,60.241,24.99c11.646,0,22.884-2.35,33.312-6.772
  	l36.874,36.902c1.534,1.515,3.557,2.319,5.74,2.248l20.095-0.705l-0.656,20.145c-0.062,2.125,0.705,4.193,2.245,5.706
  	c1.484,1.512,3.569,2.334,5.685,2.248l20.169-0.689l-0.724,20.123c-0.063,2.127,0.754,4.199,2.238,5.712
  	c1.534,1.512,3.321,2.325,5.74,2.251l20.119-0.684l-0.674,20.126c-0.118,2.232,0.822,4.379,2.418,5.903
  	c1.472,1.339,3.309,2.06,5.245,2.06c0.278,0,0.563-0.012,0.847-0.037l30.851-3.426c4.169-0.455,7.205-4.175,6.847-8.353
  	L287.305,243.005z M84.106,82.415c-9.476,9.466-24.796,9.466-34.252,0c-9.47-9.469-9.47-24.786,0-34.246
  	c9.456-9.46,24.771-9.469,34.252-0.003C93.563,57.625,93.557,72.952,84.106,82.415z M260.97,245.575
  	c-1.126,1.126-2.635,1.688-4.101,1.688s-2.976-0.563-4.101-1.688l-95.501-95.529c2.659-2.867,5.077-5.885,7.273-9.058l96.429,96.41
  	C263.221,239.65,263.221,243.324,260.97,245.575z"/>
  </symbol>
</svg>
