<svg>
  <symbol id="svg-icon-user" width="17" height="17" viewBox="0 0 17 17" version="1.1" xmlns="http://www.w3.org/2000/svg" xmlns:xlink="http://www.w3.org/1999/xlink">
    <g id="Canvas" transform="translate(-1352 -423)">
    <g id="Group 12">
    <g id="Group 11">
    <g id="Path 4">
    <use xlink:href="#path0_fill" transform="translate(1356.41 423)"/>
    </g>
    <g id="Path 5">
    <use xlink:href="#path1_fill" transform="translate(1353 430.5)"/>
    </g>
    </g>
    </g>
    </g>
    <defs>
    <path id="path0_fill" d="M 4.09346 8.18237C 4.63192 8.19055 5.16634 8.08829 5.66374 7.8819C 6.16114 7.67551 6.61097 7.36936 6.98545 6.98237C 7.37245 6.60788 7.67859 6.15806 7.88498 5.66065C 8.09137 5.16325 8.19363 4.62883 8.18545 4.09037C 8.19357 3.55191 8.09129 3.01751 7.88491 2.52011C 7.67852 2.02272 7.3724 1.57289 6.98545 1.19837C 6.60565 0.818445 6.15471 0.517068 5.65841 0.31145C 5.16211 0.105832 4.63016 -5.17102e-12 4.09295 -5.17178e-12C 3.55574 -5.17204e-12 3.0238 0.105832 2.5275 0.31145C 2.0312 0.517068 1.58027 0.818445 1.20046 1.19837C 0.813508 1.57289 0.507394 2.02272 0.301006 2.52011C 0.0946188 3.01751 -0.00766944 3.55191 0.000453905 4.09037C -0.0077287 4.62883 0.0945313 5.16325 0.300922 5.66065C 0.507313 6.15806 0.81346 6.60788 1.20046 6.98237C 1.5751 7.36944 2.02509 7.67562 2.52266 7.88202C 3.02024 8.08841 3.55484 8.19063 4.09346 8.18237L 4.09346 8.18237Z"/>
    <path id="path1_fill" d="M 14.9656 5.00225C 14.9367 4.61286 14.887 4.22529 14.8166 3.84124C 14.7481 3.45012 14.6539 3.06396 14.5346 2.68524C 14.4183 2.32399 14.2648 1.97579 14.0766 1.64624C 13.8994 1.32794 13.6767 1.0372 13.4156 0.783237C 13.1519 0.535815 12.8424 0.342208 12.5046 0.213244C 12.1257 0.0675315 11.7225 -0.00475146 11.3166 0.000246986C 11.1541 0.0467985 11.0023 0.124572 10.8696 0.229236C 10.6356 0.381902 10.3709 0.552578 10.0756 0.741244C 9.71478 0.959029 9.32809 1.1307 8.92457 1.25225C 8.00116 1.55762 7.00398 1.55762 6.08057 1.25225C 5.67704 1.13072 5.29036 0.959048 4.92957 0.741244C 4.63491 0.553244 4.37024 0.382569 4.13557 0.229236C 4.00288 0.124572 3.85104 0.0467985 3.68857 0.000246986C 3.28265 -0.00475146 2.87948 0.0675315 2.50057 0.213244C 2.16274 0.342208 1.85329 0.535815 1.58957 0.783237C 1.3288 1.0373 1.10647 1.32803 0.929574 1.64624C 0.741412 1.97582 0.587925 2.32401 0.471573 2.68524C 0.352271 3.06396 0.258067 3.45012 0.189574 3.84124C 0.119039 4.22527 0.0693002 4.61285 0.0405737 5.00225C 0.015907 5.36091 0.00357301 5.72757 0.00357301 6.10224C -0.0157616 6.47453 0.0435237 6.84674 0.177569 7.1946C 0.311614 7.54246 0.517414 7.8582 0.781573 8.12125C 1.3455 8.63173 2.0888 8.89783 2.84857 8.86124L 12.1596 8.86124C 12.9194 8.89783 13.6627 8.63173 14.2266 8.12125C 14.4908 7.85823 14.6966 7.5425 14.8307 7.19463C 14.9647 6.84676 15.024 6.47454 15.0046 6.10224C 15.0039 5.72757 14.9909 5.36091 14.9656 5.00225Z"/>
    </defs>
  </symbol>
  <symbol id="svg-icon-mail" version="1.1" xmlns="http://www.w3.org/2000/svg" xmlns:xlink="http://www.w3.org/1999/xlink" x="0px" y="0px"
  	 viewBox="0 0 483.3 483.3" style="enable-background:new 0 0 483.3 483.3;" xml:space="preserve">
    <g>
    	<g>
    		<path d="M424.3,57.75H59.1c-32.6,0-59.1,26.5-59.1,59.1v249.6c0,32.6,26.5,59.1,59.1,59.1h365.1c32.6,0,59.1-26.5,59.1-59.1
    			v-249.5C483.4,84.35,456.9,57.75,424.3,57.75z M456.4,366.45c0,17.7-14.4,32.1-32.1,32.1H59.1c-17.7,0-32.1-14.4-32.1-32.1v-249.5
    			c0-17.7,14.4-32.1,32.1-32.1h365.1c17.7,0,32.1,14.4,32.1,32.1v249.5H456.4z"/>
    		<path d="M304.8,238.55l118.2-106c5.5-5,6-13.5,1-19.1c-5-5.5-13.5-6-19.1-1l-163,146.3l-31.8-28.4c-0.1-0.1-0.2-0.2-0.2-0.3
    			c-0.7-0.7-1.4-1.3-2.2-1.9L78.3,112.35c-5.6-5-14.1-4.5-19.1,1.1c-5,5.6-4.5,14.1,1.1,19.1l119.6,106.9L60.8,350.95
    			c-5.4,5.1-5.7,13.6-0.6,19.1c2.7,2.8,6.3,4.3,9.9,4.3c3.3,0,6.6-1.2,9.2-3.6l120.9-113.1l32.8,29.3c2.6,2.3,5.8,3.4,9,3.4
    			c3.2,0,6.5-1.2,9-3.5l33.7-30.2l120.2,114.2c2.6,2.5,6,3.7,9.3,3.7c3.6,0,7.1-1.4,9.8-4.2c5.1-5.4,4.9-14-0.5-19.1L304.8,238.55z"
    			/>
    	</g>
    </g>
  </symbol>
  <symbol id="svg-icon-key" version="1.1" xmlns="http://www.w3.org/2000/svg" xmlns:xlink="http://www.w3.org/1999/xlink" x="0px" y="0px"
  	 width="300px" height="300px" viewBox="0 0 300 300" enable-background="new 0 0 300 300" xml:space="preserve">
  <path d="M287.305,243.005c-0.136-1.772-0.928-3.476-2.227-4.747L172.835,126.015c4.416-10.403,6.747-21.669,6.747-33.312
  	c0-22.754-8.875-44.163-24.938-60.266C138.558,16.366,117.164,7.5,94.397,7.5c-22.778,0-44.135,8.869-60.247,24.95
  	C0.907,65.675,0.9,119.716,34.145,152.938c16.111,16.115,37.475,24.99,60.241,24.99c11.646,0,22.884-2.35,33.312-6.772
  	l36.874,36.902c1.534,1.515,3.557,2.319,5.74,2.248l20.095-0.705l-0.656,20.145c-0.062,2.125,0.705,4.193,2.245,5.706
  	c1.484,1.512,3.569,2.334,5.685,2.248l20.169-0.689l-0.724,20.123c-0.063,2.127,0.754,4.199,2.238,5.712
  	c1.534,1.512,3.321,2.325,5.74,2.251l20.119-0.684l-0.674,20.126c-0.118,2.232,0.822,4.379,2.418,5.903
  	c1.472,1.339,3.309,2.06,5.245,2.06c0.278,0,0.563-0.012,0.847-0.037l30.851-3.426c4.169-0.455,7.205-4.175,6.847-8.353
  	L287.305,243.005z M84.106,82.415c-9.476,9.466-24.796,9.466-34.252,0c-9.47-9.469-9.47-24.786,0-34.246
  	c9.456-9.46,24.771-9.469,34.252-0.003C93.563,57.625,93.557,72.952,84.106,82.415z M260.97,245.575
  	c-1.126,1.126-2.635,1.688-4.101,1.688s-2.976-0.563-4.101-1.688l-95.501-95.529c2.659-2.867,5.077-5.885,7.273-9.058l96.429,96.41
  	C263.221,239.65,263.221,243.324,260.97,245.575z"/>
  </symbol>
  <symbol id="svg-logo-site" width="36" height="36" viewBox="0 0 36 36" version="1.1" xmlns="http://www.w3.org/2000/svg" xmlns:xlink="http://www.w3.org/1999/xlink">
    <g id="Canvas" fill="none">
    <g id="Logo">
    <g id="Polygon">
    <path fill-rule="evenodd" clip-rule="evenodd" d="M 26.2691 17.5L 19.658 0.5L 15.3572 0.5L 13.973 4.54043L 13.5 5.92111L 13.027 4.54043L 11.6428 0.5L 7.34203 0.5L 0.730922 17.5L 4.1787 17.5L 6.0452 13.4139L 6.1787 13.1216L 6.5 13.1216L 9 13.1216L 9.77809 13.1216L 9.4548 13.8294L 7.77809 17.5L 11.2138 17.5L 13.0689 14.3414L 13.5 13.6073L 13.9311 14.3414L 15.7862 17.5L 19.2219 17.5L 17.5452 13.8294L 17.2219 13.1216L 18 13.1216L 20.5 13.1216L 20.8213 13.1216L 20.9548 13.4139L 22.8213 17.5L 26.2691 17.5Z" stroke-miterlimit="8" transform="translate(4.5 9)" stroke="#333333"/>
    </g>
    <g id="Polygon_2">
    <path fill-rule="evenodd" clip-rule="evenodd" d="M 0.766594 6.31081L 4.78385 6.31081L 2.95782 1.33613L 0.766594 6.31081ZM 11.0422 1.33613L 9.21615 6.31081L 13.2334 6.31081L 11.0422 1.33613Z" stroke-miterlimit="8" transform="translate(11 12.8919)" stroke="#333333"/>
    </g>
    </g>
    </g>
  </symbol>
  <symbol id="svg-icon-cog" width="21" height="21" viewBox="0 0 21 22" version="1.1" xmlns="http://www.w3.org/2000/svg" xmlns:xlink="http://www.w3.org/1999/xlink">
    <g id="Canvas">
    <g id="Cog">
    <g id="Group">
    <g id="Vector">
    <path d="M 20.8677 8.90797C 20.8179 8.5799 20.5917 8.30619 20.2794 8.19543L 18.625 7.60715C 18.5271 7.32995 18.4161 7.06045 18.293 6.79976L 19.0459 5.21535C 19.188 4.91657 19.1543 4.56319 18.9581 4.29599C 18.3235 3.43292 17.5653 2.6747 16.7045 2.04303C 16.4371 1.8467 16.0849 1.81332 15.7855 1.95577L 14.2021 2.70809C 13.9414 2.58503 13.6715 2.47427 13.3941 2.3764L 12.8056 0.721729C 12.6948 0.410053 12.4218 0.184432 12.0945 0.134053C 10.9314 -0.0446843 10.0706 -0.0446843 8.90577 0.134053C 8.57879 0.184432 8.30544 0.410053 8.19468 0.721729L 7.60616 2.3764C 7.32871 2.47427 7.05886 2.58503 6.7984 2.70809L 5.21435 1.95577C 4.91558 1.81344 4.5628 1.84682 4.2956 2.04303C 3.43482 2.6747 2.6766 3.43292 2.04204 4.29599C 1.84571 4.56319 1.81208 4.91645 1.95418 5.21535L 2.70709 6.79976C 2.58404 7.05997 2.47328 7.33007 2.37517 7.60715L 0.720493 8.19603C 0.408456 8.30679 0.182594 8.58038 0.132456 8.90797C 0.0421834 9.50095 0 10.0065 0 10.5012C 0 10.9951 0.0421834 11.5014 0.132456 12.0944C 0.182232 12.4225 0.408456 12.6962 0.720734 12.8069L 2.37517 13.3952C 2.47328 13.6729 2.5844 13.9425 2.70709 14.2032L 1.95418 15.787C 1.81208 16.0858 1.84583 16.4392 2.0418 16.7058C 2.67551 17.5682 3.43373 18.3264 4.2956 18.9593C 4.5628 19.1557 4.91558 19.1896 5.2146 19.0466L 6.79804 18.2943C 7.05874 18.4173 7.32859 18.5281 7.60604 18.6259L 8.19456 20.2806C 8.30532 20.5923 8.5783 20.8179 8.90565 20.8683C 9.48754 20.958 10.0089 21.0014 10.4999 21.0014C 10.991 21.0014 11.5125 20.958 12.0942 20.8683C 12.4215 20.8179 12.6946 20.5923 12.8053 20.2806L 13.3938 18.6259C 13.6713 18.5281 13.9411 18.4173 14.2018 18.2943L 15.7853 19.0466C 16.0847 19.1895 16.4374 19.1555 16.7046 18.9593C 17.5675 18.3254 18.3257 17.5671 18.9582 16.7058C 19.1542 16.4392 19.1879 16.0858 19.0458 15.787L 18.2929 14.2032C 18.416 13.9425 18.527 13.6723 18.6248 13.3952L 20.2793 12.8069C 20.5915 12.6962 20.8178 12.4226 20.8675 12.0944C 20.9578 11.5014 21 10.9952 21 10.5012C 21 10.0071 20.9579 9.50083 20.8677 8.90797ZM 19.1567 11.2956L 17.6046 11.8476C 17.3333 11.9436 17.1247 12.1639 17.043 12.4405C 16.9044 12.9092 16.7219 13.3528 16.5001 13.7594C 16.3625 14.0125 16.3539 14.3161 16.4776 14.5762L 17.1816 16.0569C 16.8414 16.4653 16.4653 16.8421 16.0562 17.1818L 14.5758 16.4787C 14.3154 16.3538 14.0127 16.3638 13.7593 16.501C 13.352 16.7225 12.9083 16.9047 12.4392 17.0436C 12.1632 17.1251 11.9429 17.3336 11.8466 17.6049L 11.2943 19.1576C 10.7306 19.2149 10.2695 19.2149 9.70581 19.1576L 9.15357 17.6049C 9.05715 17.3342 8.83683 17.1249 8.56095 17.0436C 8.09163 16.9047 7.6475 16.7225 7.24085 16.501C 6.98739 16.3627 6.68415 16.3539 6.4243 16.4787L 4.9439 17.1824C 4.5352 16.8419 4.15905 16.4658 3.81857 16.0569L 4.52255 14.5762C 4.6462 14.316 4.63765 14.0125 4.50001 13.7594C 4.27885 13.354 4.09625 12.9099 3.95717 12.4399C 3.87545 12.1639 3.66658 11.9436 3.39553 11.8476L 1.84342 11.2956C 1.81413 11.0132 1.80003 10.753 1.80003 10.5011C 1.80003 10.2492 1.81413 9.98955 1.84342 9.70716L 3.39589 9.15468C 3.66683 9.05862 3.87545 8.8383 3.95717 8.5623C 4.09601 8.09359 4.27861 7.64946 4.50001 7.2422C 4.63765 6.98971 4.6462 6.6855 4.52255 6.42601L 3.81857 4.94538C 4.15929 4.53644 4.53544 4.15968 4.9439 3.8198L 6.4249 4.52354C 6.68415 4.6484 6.98859 4.6384 7.24145 4.50124C 7.64786 4.27972 8.09163 4.09749 8.56095 3.95865C 8.83695 3.87717 9.05727 3.66806 9.15357 3.39736L 9.70581 1.84465C 10.2642 1.78668 10.7262 1.78668 11.2943 1.84465L 11.8466 3.39736C 11.943 3.66806 12.1633 3.87729 12.4392 3.95865C 12.9085 4.09749 13.3526 4.27972 13.7593 4.50124C 14.0127 4.63949 14.3154 4.64828 14.5758 4.52354L 16.0562 3.8198C 16.4647 4.15968 16.8408 4.53644 17.1816 4.94538L 16.4776 6.42601C 16.3539 6.68562 16.3625 6.98971 16.5001 7.2422C 16.7222 7.65066 16.9047 8.09419 17.043 8.5617C 17.1247 8.83831 17.3333 9.05862 17.6046 9.15468L 19.1567 9.70668C 19.186 9.98907 19.2001 10.2493 19.2001 10.5012C 19.2001 10.7531 19.186 11.0132 19.1567 11.2956Z" />
    </g>
    <g id="Vector_2">
    <path d="M 4.16664 -2.24364e-07C 1.86921 -2.24364e-07 1.69193e-07 1.86909 1.69193e-07 4.16664C 1.69193e-07 6.46419 1.86909 8.33328 4.16664 8.33328C 6.46419 8.33328 8.33328 6.46419 8.33328 4.16664C 8.33328 1.86909 6.46407 -2.24364e-07 4.16664 -2.24364e-07ZM 4.16664 6.53325C 2.86172 6.53325 1.80003 5.47155 1.80003 4.16664C 1.80003 2.86172 2.86172 1.80003 4.16664 1.80003C 5.47155 1.80003 6.53325 2.86172 6.53325 4.16664C 6.53325 5.47155 5.47155 6.53325 4.16664 6.53325Z" transform="translate(6.3335 6.12289)"/>
    </g>
    </g>
    </g>
    </g>
  </symbol>
  <symbol id="svg-icon-photo" width="21" height="18" viewBox="0 0 21 18" version="1.1" xmlns="http://www.w3.org/2000/svg" xmlns:xlink="http://www.w3.org/1999/xlink">
    <g id="Canvas">
    <g id="Photo">
    <g id="Group">
    <g id="Group_2">
    <g id="Vector">
    <path d="M 20.18 3.5806C 19.633 3.03979 18.9733 2.76931 18.2003 2.76931L 15.7503 2.76931L 15.1926 1.29827C 15.054 0.944964 14.8007 0.640231 14.4323 0.384108C 14.064 0.128099 13.6867 3.46875e-08 13.3002 3.46875e-08L 7.70008 3.46875e-08C 7.31362 3.46875e-08 6.93623 0.128099 6.56796 0.384108C 6.19969 0.640231 5.94638 0.944964 5.80782 1.29827L 5.25003 2.76931L 2.80001 2.76931C 2.02696 2.76931 1.36719 3.03979 0.820248 3.5806C 0.273416 4.12145 0 4.77403 0 5.5385L 0 15.2307C 0 15.9952 0.273416 16.6479 0.820248 17.1886C 1.36719 17.7295 2.027 18 2.80001 18L 18.2001 18C 18.973 18 19.6327 17.7295 20.1797 17.1886C 20.7265 16.6479 21 15.9952 21 15.2307L 21 5.5385C 21.0002 4.77403 20.7267 4.12145 20.18 3.5806ZM 13.9618 13.8084C 13.0029 14.7567 11.8491 15.231 10.5001 15.231C 9.15098 15.231 7.99725 14.7567 7.03832 13.8084C 6.07939 12.8602 5.60003 11.7188 5.60003 10.3849C 5.60003 9.05056 6.07955 7.90957 7.03832 6.96119C 7.99714 6.01282 9.15102 5.53873 10.5001 5.53873C 11.8491 5.53873 13.0029 6.01293 13.9618 6.96119C 14.9207 7.90945 15.4001 9.05056 15.4001 10.3849C 15.4001 11.7188 14.9207 12.8601 13.9618 13.8084Z" />
    </g>
    <g id="Vector_2">
    <path d="M 3.15013 -4.625e-09C 2.28237 -4.625e-09 1.54043 0.304695 0.924258 0.914161C 0.308086 1.52355 1.07559e-07 2.25721 1.07559e-07 3.1156C 1.07559e-07 3.97365 0.308086 4.70743 0.924258 5.31682C 1.54043 5.92609 2.28234 6.23079 3.15013 6.23079C 4.01776 6.23079 4.75978 5.92609 5.37595 5.31682C 5.99212 4.70743 6.30025 3.97369 6.30025 3.1156C 6.30025 2.25725 5.99212 1.52359 5.37595 0.914161C 4.75982 0.304733 4.01776 -4.625e-09 3.15013 -4.625e-09Z" transform="translate(7.3501 7.2693)" />
    </g>
    </g>
    </g>
    </g>
    </g>
  </symbol>
  <symbol id="svg-icon-video" width="18" height="18" viewBox="0 0 18 18" version="1.1" xmlns="http://www.w3.org/2000/svg" xmlns:xlink="http://www.w3.org/1999/xlink">
    <g id="Canvas">
    <g id="Movie">
    <g id="Group">
    <g id="theaters">
    <g id="Vector">
    <path d="M 15.75 0L 15.75 2L 13.5 2L 13.5 0L 4.5 0L 4.5 2L 2.25 2L 2.25 0L 0 0L 0 18L 2.25 18L 2.25 16L 4.5 16L 4.5 18L 13.5 18L 13.5 16L 15.75 16L 15.75 18L 18 18L 18 0L 15.75 0ZM 4.5 14L 2.25 14L 2.25 12L 4.5 12L 4.5 14ZM 4.5 10L 2.25 10L 2.25 8L 4.5 8L 4.5 10ZM 4.5 6L 2.25 6L 2.25 4L 4.5 4L 4.5 6ZM 15.75 14L 13.5 14L 13.5 12L 15.75 12L 15.75 14ZM 15.75 10L 13.5 10L 13.5 8L 15.75 8L 15.75 10ZM 15.75 6L 13.5 6L 13.5 4L 15.75 4L 15.75 6Z"/>
    </g>
    </g>
    </g>
    </g>
    </g>
  </symbol>
  <symbol id="svg-icon-text" width="18" height="18" viewBox="0 0 18 18" version="1.1" xmlns="http://www.w3.org/2000/svg" xmlns:xlink="http://www.w3.org/1999/xlink">
    <g id="Canvas">
    <g id="Text">
    <g id="Vector">
    <path d="M 14.8378 0L 3.16216 0C 1.41663 0.00284766 0.00292462 1.37936 -4.13205e-10 3.07896L -4.13205e-10 4.26316C -4.13205e-10 4.91731 0.544376 5.44737 1.21621 5.44737C 1.88804 5.44737 2.43241 4.91731 2.43241 4.26316L 2.43241 3.07896C 2.43241 2.68675 2.75932 2.36841 3.16216 2.36841L 7.78377 2.36841L 7.78377 15.6316L 6.32432 15.6316C 5.65249 15.6316 5.10811 16.1616 5.10811 16.8158C 5.10811 17.4699 5.65249 18 6.32432 18L 11.6757 18C 12.3475 18 12.8919 17.4699 12.8919 16.8158C 12.8919 16.1616 12.3475 15.6316 11.6757 15.6316L 10.2162 15.6316L 10.2162 2.36841L 14.8378 2.36841C 15.2406 2.36841 15.5676 2.68672 15.5676 3.07896L 15.5676 4.26316C 15.5676 4.91731 16.112 5.44737 16.7838 5.44737C 17.4556 5.44737 18 4.91731 18 4.26316L 18 3.07896C 17.997 1.37936 16.5833 0.00284766 14.8378 0Z"/>
    </g>
    </g>
    </g>
  </symbol>
  <symbol id="svg-arrow-right" width="28" height="22" viewBox="0 0 28 22" version="1.1" xmlns="http://www.w3.org/2000/svg" xmlns:xlink="http://www.w3.org/1999/xlink">
    <g id="Canvas" >
    <g id="Vector">
    <path d="M 27.6186 9.94886L 19.2863 0.435333C 18.7779 -0.145111 17.9535 -0.145111 17.4451 0.435333C 16.9366 1.0159 16.9366 1.95702 17.4451 2.53758L 23.5549 9.5135L 1.30193 9.5135C 0.58295 9.5135 0 10.1791 0 11C 0 11.8208 0.58295 12.4865 1.30193 12.4865L 23.5549 12.4865L 17.4453 19.4624C 16.9368 20.0429 16.9368 20.9841 17.4453 21.5646C 17.6994 21.8547 18.0327 22 18.3659 22C 18.6991 22 19.0323 21.8547 19.2865 21.5646L 27.6186 12.0511C 28.1271 11.4705 28.1271 10.5294 27.6186 9.94886Z"/>
    </g>
    </g>
  </symbol>
  <symbol id="svg-comment-icon" viewBox="0 0 18 14" version="1.1" xmlns="http://www.w3.org/2000/svg" xmlns:xlink="http://www.w3.org/1999/xlink">
    <g id="Canvas">
    <g id="Vector">
    <path fill-rule="evenodd" clip-rule="evenodd" d="M 12.2745 12.7858L 12.2745 11.7089L 12.2745 11.2089L 12.7745 11.2089L 13.3687 11.2089L 15.1512 11.2089L 15.7454 11.2089C 16.3198 11.2089 16.7308 10.7723 16.7308 10.3474L 16.7308 1.3615C 16.7308 0.936546 16.3198 0.5 15.7454 0.5L 1.48541 0.5C 0.911006 0.5 0.5 0.936546 0.5 1.3615L 0.5 10.3474C 0.5 10.7723 0.911006 11.2089 1.48541 11.2089L 8.55408 11.2089L 8.02582 10.6459C 8.02574 10.6458 8.02566 10.6458 8.02559 10.6457C 7.71342 10.3132 7.76282 9.80203 8.11234 9.52678C 8.43642 9.27156 8.91723 9.29954 9.20525 9.60607L 9.20548 9.60632L 10.6856 11.1836L 12.2745 12.7858Z" stroke-miterlimit="8" fill="#26B99A"/>
    </g>
    </g>
  </symbol>
  <symbol id="svg-like-icon" viewBox="0 0 17 14" version="1.1" xmlns="http://www.w3.org/2000/svg" xmlns:xlink="http://www.w3.org/1999/xlink">
    <g id="Canvas">
    <g id="Vector">
    <path d="M 8.44917 2.47313C 9.1353 1.01743 10.7027 0.000304326 12.5259 0.000304326C 14.9817 0.000304326 16.7504 1.88087 16.9728 4.12209C 16.9728 4.12209 17.0928 4.67843 16.8286 5.68004C 16.4689 7.04413 15.6233 8.25604 14.4833 9.18096L 8.44917 14L 2.51673 9.18065C 1.37669 8.25604 0.531091 7.04383 0.171364 5.67974C -0.0928211 4.67813 0.0272013 4.12178 0.0272013 4.12178C 0.249566 1.88057 2.01828 0 4.47415 0C 6.29761 0 7.76304 1.01743 8.44917 2.47313Z" stroke="#D75A4A" />
    </g>
    </g>
  </symbol>
  <symbol id="svg-resend-icon" viewBox="0 0 16 14" version="1.1" xmlns="http://www.w3.org/2000/svg" xmlns:xlink="http://www.w3.org/1999/xlink">
    <g id="Canvas" fill="none">
    <g id="Vector">
    <path fill-rule="evenodd" clip-rule="evenodd" d="M 8.25274 5.84511L 8.91059 6.59413L 5.82698 9.766L 6.08272 13.0966L 7.8569 11.0407L 8.10641 10.7516L 8.451 10.9163L 10.891 12.0821L 14.4535 0.735839L 0.861572 7.05105L 4.34921 8.76265L 8.25274 5.84511ZM 4.49977 8.83653L 4.49965 8.83648Z" fill="#FFD633"/>
    <path fill-rule="evenodd" clip-rule="evenodd" d="M 8.25274 5.84511L 8.91059 6.59413L 5.82698 9.766L 6.08272 13.0966L 7.8569 11.0407L 8.10641 10.7516L 8.451 10.9163L 10.891 12.0821L 14.4535 0.735839L 0.861572 7.05105L 4.34921 8.76265L 8.25274 5.84511ZM 4.49977 8.83653L 4.49965 8.83648Z" stroke-miterlimit="8" stroke="#FFD633"/>
    </g>
    </g>
  </symbol>
  <symbol id="svg-clock-icon" viewBox="0 0 9 9" version="1.1" xmlns="http://www.w3.org/2000/svg" xmlns:xlink="http://www.w3.org/1999/xlink">
    <g id="Canvas" fill="none">
    <g id="Group">
    <g id="Vector">
    <path d="M 4.5 0C 2.0187 0 0 2.0187 0 4.5C 0 6.9813 2.0187 9 4.5 9C 6.9813 9 9 6.9813 9 4.5C 9 2.0187 6.9813 0 4.5 0ZM 4.5 8.04248C 2.5467 8.04248 0.957431 6.4534 0.957431 4.5C 0.957431 2.5466 2.5467 0.957524 4.5 0.957524C 6.4533 0.957524 8.04257 2.5466 8.04257 4.5C 8.04257 6.4534 6.4533 8.04248 4.5 8.04248Z" fill="white"/>
    </g>
    <g id="Vector_2">
    <path d="M 2.76336 2.80208L 0.741046 2.80208L 0.741046 0.370523C 0.741046 0.165902 0.575144 -7.06716e-09 0.370523 -7.06716e-09C 0.165902 -7.06716e-09 1.75266e-07 0.165902 1.75266e-07 0.370523L 1.75266e-07 3.1726C 1.75266e-07 3.37722 0.165902 3.54312 0.370523 3.54312L 2.76336 3.54312C 2.96798 3.54312 3.13388 3.37722 3.13388 3.1726C 3.13388 2.96798 2.96798 2.80208 2.76336 2.80208Z" transform="translate(4.08172 1.55899)" fill="white"/>
    </g>
    </g>
    </g>
  </symbol>
</svg>
